<?xml version="1.0" standalone="no"?>
<!DOCTYPE svg PUBLIC "-//W3C//DTD SVG 20010904//EN"
 "http://www.w3.org/TR/2001/REC-SVG-20010904/DTD/svg10.dtd">
<svg version="1.0" xmlns="http://www.w3.org/2000/svg"
 width="1254.000000pt" height="1254.000000pt" viewBox="0 0 1254.000000 1254.000000"
 preserveAspectRatio="xMidYMid meet">
<metadata>
Created by potrace 1.16, written by Peter Selinger 2001-2019
</metadata>
<g transform="translate(0.000000,1254.000000) scale(0.100000,-0.100000)"
fill="#000000" stroke="none">
<path d="M0 6270 l0 -6270 6270 0 6270 0 0 6270 0 6270 -6270 0 -6270 0 0
-6270z m6825 3765 l30 -60 0 -215 c0 -234 -23 -713 -36 -745 -4 -11 -8 -14 -8
-7 -1 22 -31 13 -43 -13 -14 -30 -24 -32 -31 -5 -7 26 -21 25 -34 -2 -9 -20
-12 -15 -18 37 -12 98 -17 98 -78 3 -30 -47 -66 -104 -79 -127 -12 -22 -25
-41 -28 -41 -3 0 -3 37 -2 82 5 117 -5 191 -25 184 -21 -8 -9 40 18 74 88 112
94 124 54 114 -32 -8 -31 0 3 45 47 60 99 153 117 209 10 28 18 52 20 52 1 0
0 -42 -3 -94 -2 -51 -1 -146 3 -212 7 -112 8 -117 22 -90 20 38 60 232 79 386
23 185 6 322 -43 348 -26 14 -73 -4 -173 -69 -321 -208 -632 -554 -742 -824
l-29 -70 6 63 c5 55 15 91 60 217 12 37 -66 -58 -103 -124 -20 -36 -46 -94
-59 -129 -27 -74 -44 -204 -32 -247 7 -27 7 -28 -5 -12 -16 20 -52 133 -61
190 -8 53 -22 46 -36 -18 -8 -35 -17 -54 -24 -51 -32 12 -272 -51 -387 -102
l-63 -29 120 -6 c108 -5 310 -38 341 -55 7 -4 -24 -5 -69 -3 -200 9 -511 -70
-662 -168 l-50 -32 40 6 c117 20 171 25 286 25 130 0 206 -10 297 -38 l52 -16
-87 -31 c-103 -37 -242 -106 -368 -182 -397 -241 -679 -607 -806 -1047 -24
-82 -49 -230 -32 -188 2 6 10 9 16 5 7 -4 6 1 -2 11 -12 15 -12 20 5 43 11 14
29 27 39 29 11 2 21 8 23 14 2 5 9 7 15 3 7 -3 9 -2 4 2 -4 5 7 25 25 44 18
20 9 14 -20 -14 -28 -27 -52 -44 -52 -38 0 21 220 222 303 276 74 49 197 117
212 117 4 0 -2 -12 -13 -27 -50 -71 -120 -239 -153 -366 -48 -190 -59 -370
-34 -574 37 -297 131 -544 303 -796 93 -136 105 -157 93 -157 -6 0 -11 4 -11
8 0 15 -72 102 -81 97 -4 -3 -10 -1 -14 5 -10 16 -28 12 -22 -5 4 -8 2 -17 -4
-20 -5 -4 -7 -11 -4 -16 11 -17 -41 -9 -58 9 -76 80 -105 117 -100 128 3 8 0
14 -7 14 -6 0 -8 5 -5 10 7 11 -49 81 -59 74 -3 -2 -4 -1 -1 2 2 4 -5 20 -16
35 -11 16 -18 33 -14 38 3 5 -3 16 -13 23 -10 7 -18 23 -17 35 1 19 -1 21 -13
10 -13 -10 -14 -9 -4 9 6 12 9 38 5 58 -6 40 15 146 29 146 5 0 12 10 17 22 7
19 12 11 31 -47 13 -39 40 -110 61 -160 26 -64 34 -95 28 -107 -5 -10 -5 -19
0 -23 5 -3 11 3 13 12 3 13 7 10 18 -14 8 -18 18 -33 22 -33 4 0 -15 46 -42
103 -93 197 -144 390 -158 600 -5 65 -14 123 -20 129 -7 7 -20 6 -43 -6 -18
-9 -34 -14 -37 -11 -2 2 7 10 22 16 14 7 26 18 26 26 0 15 -16 17 -25 3 -19
-31 -39 8 -24 47 6 15 7 24 3 21 -4 -4 -15 -3 -25 2 -20 11 -20 13 -44 -145
l-14 -90 4 70 c8 155 59 343 131 489 24 49 42 91 39 94 -3 3 -6 3 -8 1 -2 -2
-40 -47 -84 -99 -106 -125 -192 -258 -263 -405 -84 -174 -124 -307 -146 -490
l-8 -60 -6 45 c-4 25 -4 47 0 50 4 3 10 31 14 63 11 102 59 249 122 381 24 50
30 77 17 75 -25 -4 -39 4 -50 27 -13 28 -8 49 8 38 6 -3 8 -12 5 -20 -3 -7 -1
-16 5 -19 5 -4 12 1 15 10 5 13 9 13 22 3 13 -11 15 -10 9 5 -6 16 -3 18 31
21 12 1 32 24 32 38 0 10 -51 68 -59 68 -5 0 -13 -10 -19 -22 l-11 -23 -7 23
c-6 21 -44 32 -44 13 0 -5 -3 -16 -6 -25 -3 -9 -1 -16 5 -16 6 0 11 8 12 18 1
11 4 8 8 -8 9 -28 3 -49 -9 -31 -4 7 -15 9 -25 5 -14 -6 -17 -4 -12 8 6 16
-20 35 -31 23 -3 -3 0 -5 6 -5 13 0 12 -27 -1 -48 -5 -7 -13 -10 -18 -7 -5 4
-9 -3 -9 -14 0 -12 -7 -21 -15 -21 -13 0 -15 -9 -9 -52 4 -29 10 -57 15 -63
13 -14 11 -25 -5 -25 -15 0 -29 34 -26 64 3 31 -10 66 -24 66 -9 0 -17 -17
-21 -51 -14 -98 -17 -39 -6 109 31 422 178 800 429 1103 116 140 304 289 452
358 47 22 52 26 30 29 -41 6 -170 -17 -267 -49 -157 -52 -309 -138 -417 -238
l-39 -36 23 40 c188 322 499 594 917 804 129 64 421 189 461 197 46 9 39 20
-23 39 -160 46 -387 17 -585 -76 -69 -32 -69 -31 -5 17 209 158 500 269 858
329 l39 6 -51 -61 c-53 -63 -111 -166 -111 -196 0 -10 11 -1 26 22 114 168
389 432 665 637 185 137 430 279 474 274 13 -1 30 -22 50 -62z m-248 -352
c-117 -146 -243 -339 -262 -400 -5 -18 -2 -23 13 -23 19 0 19 -1 -1 -41 -22
-46 -48 -145 -39 -153 3 -3 11 -1 19 6 21 17 23 8 8 -67 -22 -118 -39 -148
-133 -235 -47 -44 -87 -78 -89 -77 -1 2 6 55 17 118 11 63 20 127 20 143 l0
30 -31 -30 -31 -29 7 40 c10 55 68 202 123 310 53 103 166 256 244 331 61 59
178 154 190 154 4 0 -21 -35 -55 -77z m1133 -125 c-17 -121 -67 -269 -177
-530 -38 -92 -47 -106 -59 -94 -12 12 -7 34 37 153 84 229 99 275 119 358 22
87 25 125 11 125 -21 0 -139 -103 -301 -264 l-175 -174 -117 67 c-101 56 -117
69 -115 89 2 20 60 53 392 222 l390 198 3 -36 c2 -21 -2 -72 -8 -114z m-675
-492 c243 -129 447 -267 608 -413 111 -102 308 -309 379 -401 39 -51 41 -54
30 -91 -7 -20 -17 -103 -24 -183 -9 -116 -9 -149 0 -161 14 -16 606 -459 839
-627 80 -58 149 -115 154 -127 10 -26 -32 -117 -86 -188 -115 -151 -212 -230
-272 -223 l-26 3 27 32 c15 17 40 61 56 96 16 36 36 67 45 70 27 11 17 29 -13
22 -25 -5 -34 0 -71 40 -75 82 -98 165 -66 240 14 36 53 59 80 49 8 -4 15 -1
15 5 0 6 -4 11 -9 11 -5 0 -82 55 -173 123 -90 67 -198 147 -239 177 -83 61
-388 297 -404 312 -7 7 -2 8 13 3 17 -5 22 -2 22 11 0 14 6 12 30 -11 16 -16
32 -26 36 -23 7 7 -30 227 -56 326 -12 50 -33 94 -64 140 -174 253 -432 465
-821 675 -60 32 -111 60 -113 62 -9 9 -18 105 -9 105 6 0 56 -24 112 -54z
m-80 -317 c22 -11 31 -17 20 -13 -11 3 -35 8 -53 11 -28 5 -32 3 -26 -13 4
-11 14 -28 23 -38 15 -18 15 -19 0 -14 -9 4 -38 10 -64 14 -50 7 -52 3 -19
-36 11 -13 6 -15 -42 -12 -61 4 -68 -6 -29 -42 l24 -23 -38 -1 c-21 -1 -49 -5
-61 -10 -22 -8 -22 -9 9 -34 17 -15 31 -28 31 -30 0 -2 -19 -2 -43 0 -39 3
-195 -18 -243 -33 -11 -4 -9 0 6 9 14 8 62 25 108 38 45 12 82 26 82 30 0 3
-11 15 -25 26 l-25 20 55 7 c30 3 55 8 55 10 0 12 -25 55 -32 55 -4 0 -8 3 -8
8 0 4 27 5 60 4 55 -3 59 -2 54 15 -4 10 -14 27 -23 37 -14 16 -14 19 -1 14
65 -23 131 -41 136 -35 3 3 1 20 -5 37 -10 29 -9 31 12 24 12 -3 40 -15 62
-25z m461 -290 c132 -42 231 -122 292 -237 l32 -60 -26 -108 c-15 -60 -27
-135 -28 -166 0 -32 -2 -58 -3 -58 -4 0 -56 118 -79 179 -24 64 -43 96 -51 87
-3 -2 -28 13 -56 35 -29 21 -81 49 -116 60 -58 20 -76 21 -180 14 -211 -15
-239 -13 -311 22 l-65 31 85 2 c73 2 155 15 125 20 -33 5 85 33 160 37 97 5
190 -11 272 -47 52 -23 56 -12 17 46 -39 59 -104 123 -146 145 -70 36 -39 35
78 -2z m-1451 -130 c-140 -40 -309 -134 -464 -258 l-64 -51 99 -1 c55 0 122
-4 149 -8 l50 -7 -35 -12 c-63 -21 -218 -129 -288 -200 -73 -72 -158 -186
-198 -264 -13 -26 -24 -49 -24 -52 0 -2 23 5 52 16 94 36 298 76 298 58 0 -4
-16 -11 -36 -15 -48 -9 -225 -100 -307 -159 -83 -59 -178 -144 -236 -211 -25
-29 -47 -52 -49 -50 -8 8 94 289 129 354 89 165 250 354 386 453 l62 46 -49 6
c-57 8 -206 -8 -275 -29 l-50 -14 30 25 c300 251 599 393 830 393 l60 0 -70
-20z m1202 -304 c20 -9 60 -37 88 -64 62 -59 103 -80 215 -114 88 -27 99 -35
155 -112 l29 -40 -34 26 -35 26 -70 -19 c-93 -26 -175 -20 -243 17 -63 34 -93
65 -162 168 -30 45 -70 92 -89 104 l-34 23 72 0 c42 0 87 -6 108 -15z m-392
-154 l40 -7 -40 -6 c-100 -15 -321 -117 -299 -138 5 -5 54 -25 109 -46 165
-61 158 -56 100 -65 -150 -21 -353 -153 -482 -312 -32 -40 -61 -74 -66 -75 -4
-2 -4 -8 -1 -13 4 -6 10 -6 17 -1 7 5 55 20 107 32 110 26 390 41 390 21 0 -6
-10 -11 -22 -11 -13 0 -30 -4 -37 -9 -18 -11 -5 -15 119 -31 107 -14 209 -30
235 -37 l20 -6 -20 -8 c-11 -4 54 -7 145 -6 239 3 293 -15 665 -228 264 -150
333 -182 410 -190 84 -9 246 10 293 35 21 10 46 22 56 25 35 10 1 27 -48 24
-57 -5 -61 6 -5 14 22 3 72 16 110 28 l69 23 28 -21 c19 -14 28 -31 30 -55 6
-66 -81 -120 -273 -171 -60 -16 -111 -21 -205 -21 -116 -1 -130 1 -194 28 -38
16 -115 53 -170 84 -317 172 -385 202 -461 202 -48 0 -70 -18 -60 -49 11 -35
52 -59 158 -91 127 -40 215 -75 392 -155 169 -77 270 -101 387 -91 73 6 217
30 263 43 16 4 14 0 -10 -22 -27 -26 -28 -29 -11 -35 17 -6 16 -8 -10 -27 -80
-57 -168 -82 -284 -83 -100 0 -170 19 -304 84 -163 79 -217 100 -476 188 -369
125 -384 129 -480 129 -111 0 -177 -15 -276 -61 -73 -34 -164 -100 -164 -120
0 -5 28 0 63 11 34 10 103 23 152 29 112 12 125 12 125 0 0 -5 -12 -10 -27
-10 -33 0 -152 -69 -199 -117 -79 -79 -129 -168 -115 -205 7 -19 8 -20 15 -3
6 17 7 17 25 1 13 -12 21 -14 26 -6 3 6 1 9 -6 8 -6 -2 -14 3 -17 11 -3 8 0
11 7 7 6 -4 21 3 33 14 l23 21 -49 -21 c-27 -11 -51 -18 -53 -16 -8 7 77 48
127 61 l45 12 -57 -58 c-92 -94 -155 -248 -159 -392 -1 -31 -4 -57 -5 -57 -11
0 -98 166 -115 220 -41 132 -26 317 36 446 14 28 25 54 25 58 0 11 -69 -42
-128 -98 -61 -58 -108 -119 -147 -191 l-27 -50 6 92 c13 205 111 377 283 500
68 48 206 108 229 99 8 -3 14 1 14 8 0 20 -33 26 -135 26 -49 0 -128 7 -173
17 -71 14 -94 14 -150 4 -89 -16 -187 -59 -266 -115 l-64 -45 9 39 c36 160
149 360 278 494 76 78 202 176 228 176 22 0 14 19 -11 26 -13 3 -80 4 -149 2
l-125 -3 57 38 c154 104 268 157 393 182 119 24 174 27 233 16z m-1437 -658
c-9 -10 -29 -45 -46 -78 -112 -224 -114 -501 -8 -774 30 -76 14 -77 -21 -1
-13 30 -21 44 -17 30 4 -14 7 -38 7 -53 0 -16 3 -23 7 -17 5 8 9 7 13 -4 4
-10 1 -16 -8 -16 -7 0 -17 -9 -20 -21 -5 -15 -10 -18 -18 -10 -16 16 -31 13
-18 -3 9 -10 9 -21 3 -33 -13 -25 14 -94 34 -86 16 6 19 33 3 33 -6 0 -8 9 -4
21 4 12 3 19 -2 16 -5 -3 -9 3 -9 13 0 18 1 18 17 2 11 -11 13 -21 7 -29 -5
-7 -5 -13 0 -17 14 -8 23 36 16 73 -4 18 -2 31 4 31 13 0 33 -25 25 -33 -3 -4
0 -13 7 -22 10 -12 10 -15 -4 -15 -9 0 -16 -8 -16 -20 0 -11 -4 -20 -10 -20
-5 0 -10 -9 -10 -21 0 -13 4 -18 13 -13 9 6 9 4 1 -7 -15 -20 -12 -85 4 -81 8
1 11 -2 7 -7 -3 -6 2 -22 11 -36 9 -14 14 -25 10 -25 -9 0 -69 99 -103 170
-60 123 -68 151 -109 348 -2 12 -8 22 -12 22 -10 0 -85 -124 -105 -175 -17
-40 -17 -39 -12 76 8 200 43 335 130 509 52 104 119 195 188 254 50 43 76 54
45 19z m144 -510 c-40 -76 -62 -338 -43 -499 14 -115 61 -315 97 -410 14 -37
23 -68 21 -70 -6 -6 -188 185 -217 227 l-24 34 25 -23 c14 -12 28 -20 31 -16
3 3 9 0 14 -7 4 -8 3 -10 -4 -5 -21 13 -13 -10 11 -32 15 -14 27 -18 37 -12 8
5 18 6 23 3 5 -3 4 4 -2 15 -7 12 -7 23 -2 26 8 6 25 -40 26 -71 0 -6 4 -15 8
-19 13 -13 7 -23 -10 -17 -11 4 -6 -5 12 -23 17 -16 31 -29 33 -28 2 1 -10 43
-27 92 -17 49 -31 97 -31 106 0 10 -4 14 -10 11 -5 -3 -8 0 -5 7 2 7 -4 63
-15 123 -18 102 -19 105 -15 40 2 -47 1 -60 -4 -40 -8 27 -12 25 -15 -7 -2
-22 -17 -26 -47 -11 -23 12 -27 18 -19 32 5 10 7 32 5 49 -3 25 0 32 13 32 11
0 13 3 6 8 -7 4 -19 29 -28 56 -15 44 -15 56 -2 120 8 40 25 99 37 131 23 64
104 195 120 195 6 0 6 -7 1 -17z m2016 -233 c-19 -55 -5 -177 30 -266 38 -96
142 -256 239 -369 55 -65 62 -75 33 -56 -19 13 -43 34 -53 45 -10 12 -15 15
-11 7 8 -16 2 -13 -64 31 -24 17 -40 34 -36 40 5 7 2 8 -5 4 -7 -5 -21 0 -31
9 -15 14 -17 22 -9 39 10 20 10 20 -5 2 -16 -19 -16 -19 -41 4 -14 13 -27 21
-30 18 -14 -14 68 -195 129 -288 120 -179 303 -342 555 -494 115 -69 155 -103
80 -66 -24 11 -52 25 -61 30 -9 5 -45 19 -80 31 -114 38 -381 147 -488 198
-101 49 -184 95 -339 190 -39 24 -73 42 -76 40 -9 -9 61 -130 126 -216 38 -51
113 -138 166 -195 54 -56 83 -92 65 -79 -18 13 -54 45 -79 72 -41 44 -47 47
-70 36 -14 -6 -20 -13 -14 -15 6 -2 11 -8 11 -13 0 -5 -45 13 -100 41 -55 28
-100 52 -100 55 0 2 37 -14 83 -36 51 -24 90 -37 100 -33 14 5 15 9 6 20 -14
17 2 18 20 2 8 -7 -19 29 -59 79 -62 79 -76 91 -89 81 -9 -7 -13 -8 -9 -4 4 5
-1 21 -12 36 -23 32 -27 54 -5 24 26 -34 16 -7 -26 70 -46 85 -58 99 -28 31
11 -25 17 -50 14 -55 -4 -6 1 -24 9 -42 16 -31 16 -31 -4 -13 -24 22 -27 9 -3
-17 9 -10 14 -21 11 -24 -10 -9 -67 81 -108 169 -58 123 -104 259 -114 333 -2
16 -9 42 -15 58 -20 49 -4 41 23 -12 64 -127 221 -265 417 -367 107 -55 157
-92 82 -59 -21 9 -42 16 -48 17 -34 1 -42 -4 -40 -30 1 -26 14 -35 155 -105
85 -42 158 -75 162 -72 4 3 8 1 8 -5 0 -5 30 -19 68 -32 37 -12 83 -30 102
-40 41 -20 92 -35 71 -21 -9 7 -10 12 -2 16 6 4 21 -3 34 -16 13 -13 41 -31
63 -40 21 -10 31 -12 20 -5 -10 6 -57 40 -105 73 -47 34 -88 59 -91 57 -3 -3
1 -8 9 -11 11 -4 11 -6 0 -14 -11 -8 -10 -9 4 -4 9 3 17 1 17 -4 0 -18 -18
-20 -51 -5 -25 10 -29 14 -14 15 19 1 19 2 -1 10 -12 5 -25 13 -29 19 -3 6
-12 9 -18 5 -7 -3 -3 2 8 10 11 9 26 14 35 11 8 -2 -9 17 -38 44 -30 27 -73
71 -97 97 -25 27 -44 45 -45 40 0 -5 37 -47 83 -94 45 -47 69 -76 53 -64 -34
26 -48 28 -39 6 5 -13 2 -15 -15 -9 -23 7 -29 -4 -12 -21 18 -18 -25 -10 -51
10 l-24 17 30 -5 30 -5 -26 12 c-14 7 -24 17 -22 24 2 6 -5 17 -15 25 -11 7
-22 22 -25 33 -4 11 -5 3 -2 -17 2 -21 0 -38 -6 -38 -10 0 -13 21 -10 59 2 21
-1 23 -28 18 -21 -4 -33 -1 -43 11 -12 15 -11 16 4 4 21 -16 35 2 18 23 -9 11
-9 15 -1 15 7 0 3 12 -9 28 -12 17 -18 35 -14 45 9 23 18 21 34 -8 7 -13 17
-22 22 -19 4 3 6 10 3 15 -4 5 -1 9 5 9 6 0 -3 20 -20 45 -32 47 -49 60 -29
24 10 -20 9 -21 -10 -16 -17 4 -19 2 -12 -11 5 -10 5 -22 -2 -34 -11 -16 -13
-16 -41 10 -29 27 -29 26 5 -23 52 -74 57 -83 36 -66 -21 16 -138 192 -164
246 -28 56 -70 171 -83 225 -10 44 -29 200 -24 200 2 0 12 -21 24 -47 29 -65
64 -109 121 -150 27 -19 46 -40 42 -45 -4 -7 -1 -8 6 -4 10 6 9 12 -2 24 -26
32 -52 172 -51 282 0 88 4 114 23 158 25 55 47 72 29 22z m-1704 -437 c39 -82
114 -194 180 -271 26 -30 46 -64 46 -77 0 -12 7 -25 15 -29 13 -4 14 -2 5 14
-15 28 -2 25 22 -5 38 -49 245 -218 358 -294 215 -144 451 -251 785 -355 406
-128 474 -150 560 -188 98 -43 269 -137 262 -145 -3 -2 -69 27 -148 66 -177
86 -241 109 -541 200 -238 72 -380 121 -518 180 -41 18 -83 33 -92 34 -9 1
-14 5 -11 11 4 5 -3 7 -15 4 -12 -4 -20 -3 -18 1 3 4 -21 21 -52 37 -74 38
-72 37 -72 26 0 -5 12 -13 26 -16 29 -8 28 -30 -2 -33 -10 -2 -13 0 -6 3 17 8
15 27 -3 20 -14 -5 -17 -2 -19 27 -1 14 -67 58 -77 51 -4 -2 -9 3 -13 11 -3 8
-13 15 -22 15 -13 0 -11 -4 7 -18 13 -10 36 -23 52 -30 30 -13 36 -39 12 -49
-22 -8 -30 4 -16 21 8 10 9 16 1 21 -5 3 -12 -1 -15 -9 -3 -9 -7 -23 -10 -31
-6 -20 -25 -19 -25 0 0 12 -6 14 -27 8 -16 -4 -38 -7 -50 -8 -11 0 -18 -4 -15
-10 4 -5 7 -16 7 -24 0 -8 7 -17 15 -19 12 -4 13 -3 2 10 -10 13 -10 17 2 21
10 4 13 1 10 -7 -3 -8 4 -21 16 -29 16 -11 18 -16 8 -21 -7 -3 -3 -4 10 -2 12
2 20 0 16 -5 -3 -5 2 -9 11 -9 8 0 18 -7 22 -16 3 -8 29 -28 57 -44 59 -35 55
-40 -7 -9 -79 41 -232 153 -298 219 -63 64 -146 188 -192 287 l-22 48 -5 -75
c-4 -62 -7 -72 -16 -55 -6 11 -9 27 -7 35 4 12 3 12 -5 1 -7 -10 -26 12 -75
86 -77 114 -107 178 -142 300 -23 83 -45 235 -44 313 0 27 5 18 20 -40 10 -41
35 -107 53 -147z m-854 52 c0 -28 92 -194 154 -275 301 -400 863 -720 1427
-815 120 -20 143 -25 136 -31 -2 -3 -45 0 -93 6 -316 41 -680 176 -961 357
-65 42 -126 76 -135 75 -10 0 -20 3 -23 9 -3 5 2 6 12 3 10 -4 2 7 -17 24 -38
34 -60 42 -39 15 11 -16 11 -16 -1 -5 -8 7 -15 16 -15 20 0 4 -57 64 -126 132
-141 140 -227 249 -283 360 -22 41 -40 76 -40 77 -1 1 -2 -24 -3 -55 0 -43 1
-49 6 -23 l6 34 25 -49 c27 -53 37 -78 21 -53 -9 14 -28 17 -63 10 -4 0 -9
-18 -11 -38 -3 -21 -3 12 0 72 2 61 4 125 4 143 -1 20 3 31 9 27 5 -3 10 -12
10 -20z m160 -338 c0 -5 -6 -7 -14 -4 -8 3 -17 1 -20 -6 -3 -7 -3 -2 0 11 3
12 1 22 -4 22 -5 0 -12 -11 -14 -25 -3 -14 -1 -25 5 -25 11 0 36 -30 37 -44 0
-4 -9 2 -20 15 -10 13 -19 20 -20 16 -1 -31 65 -195 131 -326 86 -170 161
-280 290 -429 46 -53 73 -90 59 -81 -36 23 -182 199 -252 304 -79 118 -179
325 -217 450 -17 55 -36 109 -42 119 -9 16 -8 18 5 13 13 -5 15 1 12 35 l-4
41 34 -39 c19 -21 34 -43 34 -47z m-187 -319 c3 -10 7 -10 19 0 13 10 17 10
21 -1 3 -8 16 -17 29 -20 58 -14 103 -36 102 -51 -1 -10 7 -16 20 -17 11 0 15
-3 8 -6 -9 -3 -10 -9 -2 -18 7 -8 7 -21 1 -38 -8 -20 -7 -27 6 -31 10 -4 13
-2 10 6 -3 9 5 13 22 14 14 1 32 3 39 5 7 2 24 -15 38 -38 20 -32 22 -41 9
-39 -8 1 -21 8 -27 14 -16 16 -28 15 -28 -3 0 -19 -9 -19 -29 -1 -20 16 -108
39 -122 31 -5 -4 -8 -3 -7 2 1 4 -8 27 -20 51 -21 38 -35 47 -70 43 -7 -1 -15
5 -18 14 -3 8 -12 15 -20 15 -8 0 -14 5 -14 11 0 5 -4 8 -8 5 -4 -2 -7 8 -6
22 1 15 7 26 13 25 6 -2 11 2 11 7 0 14 18 12 23 -2z m-2216 -1373 c151 -45
243 -182 243 -364 0 -118 -39 -224 -101 -276 -20 -17 -20 -15 3 10 15 17 35
50 46 75 25 60 42 185 32 235 -7 36 -8 33 -9 -31 -2 -105 -9 -133 -33 -129
-24 5 -37 15 -20 15 22 0 12 29 -10 33 l-23 4 23 8 c22 7 31 25 12 25 -5 0
-11 17 -11 38 -1 23 -3 28 -6 15 -2 -13 -9 -23 -14 -23 -5 0 -10 10 -10 23 -1
12 -5 -10 -9 -49 -12 -113 -25 -115 -22 -5 8 224 -73 351 -215 339 -60 -5 -96
-27 -131 -78 -36 -53 -46 -107 -46 -235 0 -102 3 -129 23 -179 42 -105 116
-149 212 -126 26 7 53 18 60 26 6 8 17 14 23 14 18 0 -45 -50 -71 -56 -13 -4
-48 -4 -78 -2 -125 10 -188 122 -189 338 -1 52 -2 83 -4 67 -2 -15 -7 -25 -11
-23 -4 3 -6 -11 -5 -30 3 -36 -6 -43 -26 -19 -7 8 -16 15 -21 15 -13 0 -11
-34 4 -49 8 -9 8 -12 0 -7 -6 3 -14 -1 -17 -11 -3 -11 -4 -8 -3 7 3 36 -28 39
-41 3 -9 -23 -11 -24 -12 -8 -1 11 -2 24 -1 28 1 4 -7 3 -18 -3 -24 -13 -71
-13 -91 0 -12 7 -9 9 10 7 36 -2 110 12 110 21 0 5 -6 9 -12 9 -7 1 -38 3 -68
6 -55 5 -55 5 -58 41 -3 33 -5 36 -30 30 -47 -10 -50 -12 -47 -31 1 -10 -6
-28 -17 -39 -10 -12 -23 -34 -28 -50 -5 -19 -9 32 -9 149 l-1 178 -30 17 c-60
34 -39 42 105 42 101 0 135 -3 135 -12 0 -7 -15 -20 -33 -28 l-32 -15 -3 -132
-3 -133 61 0 c57 0 60 1 65 28 18 90 29 123 63 172 78 116 243 168 389 125z
m3789 -25 c137 -67 202 -211 182 -404 -8 -79 -51 -178 -95 -216 l-28 -25 21
25 c68 79 108 234 87 340 l-11 55 3 -70 c1 -38 1 -57 -2 -42 -4 28 -28 33 -28
6 0 -8 -10 -14 -22 -14 -11 0 -25 -3 -29 -7 -4 -5 8 -8 26 -8 21 0 30 -4 25
-9 -18 -17 -65 -1 -66 23 -1 16 -2 17 -6 4 -2 -9 1 -27 7 -39 8 -14 8 -19 1
-15 -6 4 -14 -5 -18 -21 -6 -20 -10 7 -14 87 -6 126 -26 189 -77 244 -91 96
-242 63 -296 -65 -24 -57 -36 -184 -26 -266 20 -161 85 -235 202 -235 31 1 62
8 85 22 21 12 33 15 31 8 -7 -23 -71 -48 -121 -48 -64 0 -107 20 -145 66 -43
52 -63 119 -72 238 -5 77 -8 88 -10 46 -2 -51 -3 -53 -13 -27 -11 27 -31 36
-41 18 -3 -5 -15 -7 -25 -4 -14 4 -21 -1 -24 -19 -3 -16 -5 -11 -7 17 -3 38
-4 38 -10 -15 -6 -46 -7 -41 -5 30 3 105 30 180 87 244 71 82 165 118 292 112
62 -4 91 -10 142 -36z m3802 15 l52 -16 0 -89 c0 -106 -12 -115 -50 -37 -20
41 -34 57 -70 75 -83 41 -191 20 -242 -49 -47 -63 -63 -125 -63 -239 0 -205
76 -310 223 -310 47 0 67 5 105 30 40 25 45 26 34 9 -20 -34 -80 -59 -142 -59
-127 0 -207 85 -239 257 -14 70 -15 73 -12 24 3 -49 2 -53 -11 -35 -13 18 -14
17 -8 -9 6 -22 4 -26 -8 -21 -9 3 -13 13 -10 25 4 14 0 19 -16 19 -11 0 -21
-2 -21 -4 0 -2 -3 -13 -7 -23 -7 -17 -6 -17 11 0 21 20 29 18 20 -7 -7 -19
-33 -22 -38 -3 -8 23 -15 72 -10 60 8 -18 34 -16 34 3 0 8 -4 12 -10 9 -5 -3
-16 9 -24 27 l-14 33 -1 -45 c0 -25 8 -75 18 -112 9 -37 14 -65 10 -62 -4 2
-15 33 -24 69 -25 93 -17 222 19 301 45 98 116 158 226 190 57 17 197 11 268
-11z m-1973 -8 c0 -7 -13 -19 -30 -27 l-30 -15 -3 -312 -2 -311 35 -12 c35
-12 44 -23 25 -35 -5 -3 -10 -1 -10 4 0 6 -7 11 -15 11 -8 0 -24 9 -35 20 -19
19 -20 33 -20 222 0 111 -2 199 -5 196 -3 -2 -6 -24 -8 -48 -3 -40 -5 -43 -35
-45 -17 -2 -29 1 -26 6 3 5 -2 9 -10 9 -19 0 -21 -11 -5 -27 8 -8 7 -13 -2
-18 -8 -5 -10 -4 -5 3 4 7 2 12 -3 12 -6 0 -12 -25 -13 -57 l-2 -58 -3 53 -4
52 -155 0 c-84 0 -154 4 -154 8 0 4 10 8 23 9 88 2 101 4 87 12 -10 7 -1 11
30 14 25 2 1 4 -52 5 -53 1 -100 7 -103 12 -3 6 -11 10 -16 10 -6 0 -8 -4 -4
-9 7 -13 -27 -31 -59 -31 -23 0 -26 4 -28 38 -1 20 -5 -19 -8 -88 -5 -108 -6
-94 -8 107 -2 249 -4 255 -56 269 -12 3 -23 12 -23 20 0 11 26 14 144 14 114
0 143 -3 143 -14 0 -7 -15 -17 -32 -22 l-33 -10 -3 -136 -3 -137 153 -3 c84
-2 161 -7 170 -11 14 -7 16 -5 13 13 -2 13 -7 25 -11 29 -4 3 -4 -2 -1 -11 4
-10 3 -18 -2 -18 -13 0 -23 95 -16 158 8 72 -6 110 -45 125 -17 6 -30 17 -30
24 0 9 35 13 138 15 75 2 139 2 142 0 3 -2 5 -9 5 -15z m-4805 -77 c0 -80 -2
-90 -18 -90 -11 0 -23 13 -31 35 -22 61 -51 75 -155 75 l-91 0 3 -297 c3 -303
5 -323 42 -323 21 0 46 -27 35 -38 -4 -4 -10 -1 -12 6 -3 6 -13 12 -24 12 -10
0 -28 9 -39 20 -19 19 -20 35 -22 228 -1 114 -4 182 -7 152 -4 -40 -10 -55
-21 -55 -8 0 -18 5 -22 10 -5 6 -8 3 -8 -7 0 -9 6 -19 13 -21 6 -3 2 -6 -10
-6 -13 -1 -21 4 -19 12 1 6 1 9 -1 5 -9 -15 -22 -8 -26 15 -2 12 -5 -20 -6
-72 0 -52 -3 -92 -6 -89 -3 3 -6 103 -6 223 -1 215 -1 218 -25 241 -12 13 -30
24 -39 24 -8 0 -15 7 -15 15 0 13 35 15 255 15 l255 0 0 -90z m920 5 c0 -76
-2 -85 -18 -85 -12 0 -25 14 -36 39 -10 21 -29 44 -42 50 -14 6 -70 11 -124
11 l-100 0 0 -125 0 -125 79 0 c91 0 119 16 112 63 0 4 8 7 19 7 19 0 20 -7
20 -105 0 -87 -3 -105 -15 -105 -8 0 -15 6 -15 14 0 8 -8 23 -17 35 -15 18
-31 21 -98 24 l-80 2 -3 -137 -3 -138 98 0 c54 0 114 4 132 10 48 13 52 4 7
-15 -27 -12 -64 -15 -139 -13 l-102 3 -3 145 c-2 100 -6 140 -13 130 -8 -13
-11 -13 -23 3 -10 13 -21 17 -35 12 -15 -4 -23 -1 -29 12 -4 11 -9 -7 -13 -52
-4 -47 -6 -12 -8 110 -3 233 -7 256 -48 275 -18 8 -33 21 -33 28 0 9 60 12
265 12 l265 0 0 -85z m615 55 c30 -16 57 -39 69 -60 25 -41 26 -113 3 -157
-18 -33 -90 -83 -121 -83 -31 0 -8 -17 32 -23 46 -8 101 -47 125 -90 32 -60
18 -160 -29 -198 -17 -13 -17 -13 -1 11 45 65 41 158 -8 210 -15 15 -50 35
-78 44 -29 9 -63 23 -77 31 -22 13 -23 14 -5 15 18 1 18 2 3 11 -11 6 -23 6
-35 0 -10 -6 -35 -13 -55 -16 -21 -3 -38 -10 -38 -15 0 -5 -10 -11 -22 -13
-13 -2 2 -5 32 -6 30 0 71 -5 89 -11 32 -9 91 -55 91 -71 0 -3 -15 8 -34 26
-38 36 -70 45 -155 45 l-56 0 3 -140 3 -140 67 0 c47 0 79 6 105 19 20 10 37
15 37 9 0 -5 -20 -18 -45 -29 -34 -15 -62 -19 -112 -17 l-68 3 -5 150 c-3 83
-7 141 -8 130 -2 -16 -4 -17 -11 -6 -14 22 -2 43 21 36 15 -5 14 -2 -7 19 -15
15 -22 31 -19 40 3 9 1 16 -6 16 -6 0 -8 -5 -4 -12 5 -7 2 -9 -9 -5 -11 4 -14
2 -10 -8 3 -8 10 -12 15 -9 6 4 9 1 6 -7 -2 -8 -17 -15 -31 -17 -22 -3 -27 1
-27 19 0 39 -10 14 -19 -47 -7 -47 -9 -21 -10 124 -1 168 -3 184 -21 202 -11
11 -29 20 -40 20 -12 0 -20 7 -20 16 0 14 25 15 218 12 210 -3 219 -4 267 -28z
m699 0 c28 -14 64 -42 80 -63 27 -33 31 -48 34 -112 5 -91 -19 -149 -80 -194
-44 -32 -147 -61 -219 -61 -39 0 -41 1 -24 14 11 8 34 11 60 8 63 -7 161 26
196 66 16 18 29 38 29 44 0 6 -12 -2 -26 -18 -26 -29 -26 -29 -19 -4 4 16 3
20 -3 12 -5 -7 -19 -14 -31 -15 -13 -1 -20 -6 -17 -14 8 -19 -11 -16 -23 5 -6
9 -11 12 -11 6 0 -20 28 -36 52 -29 22 6 22 5 -2 -9 -32 -20 -66 -20 -74 -1
-5 14 -9 14 -42 0 -20 -8 -63 -15 -95 -15 l-59 0 0 32 c0 37 -9 33 -12 -6 -2
-23 -4 -25 -14 -12 -6 9 -22 16 -36 16 -13 0 -29 5 -36 12 -9 9 -12 -5 -14
-62 -2 -108 -8 -44 -16 180 l-7 195 -32 15 c-18 8 -33 21 -33 28 0 10 43 12
213 10 203 -3 214 -4 261 -28z m1286 17 c0 -7 -15 -20 -32 -28 l-33 -14 -2
-238 c-1 -131 -4 -241 -6 -244 -3 -2 -9 51 -13 119 -7 102 -10 115 -15 73 -3
-27 -7 -41 -7 -31 -2 19 -3 19 -22 -2 -21 -22 -36 -30 -25 -13 3 5 1 12 -5 16
-5 3 -10 -1 -10 -10 0 -9 -4 -13 -10 -10 -6 4 -10 -5 -10 -21 0 -15 -3 -24 -7
-20 -5 4 -10 92 -13 194 l-5 187 -32 15 c-18 8 -35 21 -37 28 -4 9 28 12 139
12 113 0 145 -3 145 -13z m450 1 c0 -7 -15 -20 -33 -28 l-32 -15 -3 -290 c-1
-159 0 -300 3 -313 3 -14 17 -27 35 -34 17 -6 30 -17 30 -26 0 -10 -3 -13 -8
-7 -4 6 -20 17 -37 25 -30 16 -30 17 -36 120 -4 58 -8 161 -10 230 l-3 125 -6
-125 c-3 -69 -7 -101 -8 -72 -2 44 -5 52 -21 52 -11 0 -22 6 -24 13 -3 6 -6 1
-7 -13 -1 -25 -1 -25 -15 5 l-13 30 -2 -40 -2 -40 -10 40 c-5 22 -8 73 -6 113
2 39 1 72 -2 72 -3 0 -27 -35 -55 -77 -65 -100 -195 -283 -201 -283 -6 0 2 14
44 72 18 26 31 52 27 58 -4 6 -2 9 3 8 16 -5 65 73 53 85 -7 7 -4 19 10 39 11
15 18 28 16 28 -6 0 -77 -98 -77 -106 0 -3 5 -2 10 1 6 3 10 1 10 -5 0 -6 -7
-10 -15 -8 -8 2 -35 -26 -65 -66 -27 -38 -50 -64 -50 -59 0 8 191 284 269 389
19 26 21 35 12 53 -7 11 -22 23 -36 27 -13 3 -26 12 -29 20 -4 12 19 14 139
14 110 0 145 -3 145 -12z m1365 1 c147 -40 182 -204 63 -292 -34 -25 -126 -33
-106 -9 8 9 14 10 16 3 4 -13 39 -15 46 -2 4 5 -2 7 -13 4 -10 -3 -22 0 -26 6
-4 8 -16 6 -38 -8 -18 -11 -61 -22 -98 -26 -63 -7 -67 -9 -87 -44 -12 -20 -22
-30 -22 -22 0 14 -28 40 -42 41 -5 0 -8 -8 -8 -17 0 -15 -2 -16 -10 -3 -14 22
-19 0 -23 -95 -2 -44 -4 29 -5 162 -2 261 -3 265 -58 279 -13 3 -24 12 -24 20
0 12 35 14 198 14 111 0 214 -5 237 -11z m785 -58 c0 -38 3 -76 6 -85 4 -11 0
-16 -14 -16 -12 0 -24 11 -32 30 -24 59 -51 70 -166 70 l-104 0 0 -125 0 -125
76 0 c87 0 114 11 114 45 0 18 5 25 20 25 19 0 20 -7 20 -105 0 -58 -4 -105
-9 -105 -5 0 -18 16 -30 35 l-20 35 -88 0 -88 0 3 -135 3 -135 102 0 c83 0
110 4 142 20 l40 20 -28 -27 c-26 -27 -33 -28 -138 -31 -61 -2 -115 0 -120 5
-5 5 -12 70 -15 144 -4 74 -11 139 -16 144 -6 6 -7 -1 -3 -20 5 -27 5 -28 -5
-6 -8 19 -13 21 -25 11 -11 -9 -15 -9 -15 -1 0 7 -4 10 -9 7 -5 -4 -14 6 -19
21 l-10 28 -2 -35 c-15 -249 -17 -247 -18 27 -2 303 -2 305 -56 319 -12 3 -23
12 -23 20 0 12 42 14 264 14 l263 0 0 -69z m1406 -21 c2 -77 -1 -90 -15 -90
-10 0 -23 18 -35 46 -22 53 -43 64 -122 64 l-54 0 0 -289 c0 -159 3 -296 6
-305 3 -8 21 -20 40 -26 19 -6 34 -18 34 -25 0 -18 -75 18 -84 40 -3 9 -7 98
-8 198 -1 142 -3 162 -7 92 -3 -49 -10 -85 -14 -78 -4 7 -15 9 -23 6 -13 -5
-13 -7 -2 -14 11 -7 10 -11 -2 -18 -10 -7 -18 -4 -28 10 -7 10 -19 19 -25 18
-9 0 -8 -2 1 -6 6 -2 9 -10 5 -16 -4 -7 -10 -32 -14 -57 -3 -25 -7 57 -8 181
0 125 -4 241 -7 258 -6 30 -8 31 -63 31 -67 0 -91 -14 -116 -69 -30 -67 -43
-53 -47 49 l-3 90 295 0 295 0 1 -90z m-7376 -1090 c0 -17 -7 -20 -49 -20
l-48 0 5 -131 c4 -123 4 -130 -14 -127 -17 3 -20 16 -24 128 l-5 125 -47 3
c-40 3 -48 6 -48 23 0 18 8 19 115 19 108 0 115 -1 115 -20z m317 0 c41 -25
65 -72 66 -129 1 -58 -19 -99 -62 -128 -44 -30 -66 -30 -24 0 18 12 33 26 33
31 0 5 -8 2 -18 -7 -46 -42 -106 -41 -158 1 -11 9 -5 2 13 -15 37 -37 35 -41
-7 -16 -46 27 -63 69 -58 146 4 69 26 108 73 127 37 16 109 11 142 -10z m388
-11 c36 -36 37 -91 2 -126 -21 -21 -38 -28 -87 -31 l-60 -4 0 -54 c0 -47 -2
-54 -20 -54 -19 0 -20 7 -20 151 l0 151 80 -4 c69 -3 83 -6 105 -29z m345 11
c0 -18 -7 -20 -75 -20 l-75 0 -2 -132 -2 -133 -6 120 -6 120 -2 -117 c-1 -65
-5 -118 -10 -118 -4 0 -9 68 -10 150 l-4 150 96 0 c89 0 96 -1 96 -20z m317 0
c88 -53 88 -207 0 -260 -44 -27 -53 -25 -20 5 l28 26 -35 -21 c-42 -24 -62
-25 -105 -4 -43 20 -68 72 -63 129 1 24 0 41 -4 38 -15 -8 -8 -89 10 -122 10
-19 34 -43 53 -53 20 -11 27 -18 16 -18 -30 0 -87 62 -97 104 -10 45 1 118 21
143 45 53 137 69 196 33z m356 11 c61 -23 77 -84 31 -120 l-26 -20 26 -12 c29
-14 41 -46 32 -83 -7 -28 -61 -57 -103 -55 l-28 1 30 8 c24 7 17 8 -30 7 l-60
-1 -6 45 c-6 44 -6 43 -4 -8 1 -29 -2 -53 -6 -53 -8 0 -18 288 -10 296 8 8
130 4 154 -5z m398 -143 c40 -105 53 -148 43 -148 -8 0 -14 8 -15 18 0 15 -1
15 -8 -2 -6 -15 -10 -10 -20 24 -9 30 -16 40 -27 36 -9 -3 -42 -6 -74 -6 -58
0 -59 0 -70 -35 -8 -24 -18 -35 -31 -35 -23 0 -23 1 -3 48 13 31 30 76 89 240
3 8 16 12 32 10 26 -3 32 -14 84 -150z m389 2 c0 -141 -1 -150 -19 -150 -16 0
-20 9 -23 60 -2 34 1 62 7 64 6 3 -15 5 -46 5 -40 1 -64 7 -85 22 l-29 21 28
-26 c15 -14 35 -26 43 -26 11 0 6 -15 -18 -60 -26 -47 -38 -59 -55 -57 -13 1
-23 3 -23 4 0 1 15 27 34 56 l35 54 -30 22 c-23 17 -29 29 -29 60 0 22 3 47 6
56 11 27 63 44 137 45 l67 0 0 -150z m410 80 c0 -38 2 -70 5 -70 7 0 119 119
123 131 2 5 18 9 35 9 l31 0 -45 -47 c-91 -96 -88 -83 -33 -154 95 -120 91
-113 67 -101 -11 6 -23 8 -27 5 -7 -8 -55 45 -56 61 0 5 12 -1 28 -15 l27 -24
-24 27 c-13 15 -27 25 -32 23 -11 -7 -70 71 -61 80 4 5 1 5 -6 1 -7 -4 -10
-11 -7 -16 3 -4 -2 -13 -10 -20 -10 -8 -16 -33 -17 -69 l-1 -56 -7 50 -7 50
-1 -47 c-1 -27 -6 -48 -11 -48 -10 0 -21 287 -12 296 2 2 13 4 23 4 16 0 18
-9 18 -70z m508 50 c35 -22 72 -88 72 -130 0 -42 -37 -108 -72 -130 -34 -20
-76 -20 -123 2 -20 9 -20 9 -1 -6 16 -13 17 -16 4 -16 -22 0 -66 37 -83 70 -8
16 -15 53 -15 83 0 60 27 112 70 134 38 19 110 16 148 -7z m304 -85 c23 -58
45 -105 48 -105 3 0 24 46 46 103 40 96 44 102 73 105 l31 3 0 -150 c0 -144
-1 -151 -20 -151 -19 0 -20 7 -20 117 0 67 -4 113 -9 108 -5 -6 -26 -52 -47
-102 -27 -64 -44 -93 -55 -93 -20 0 -44 53 -33 72 4 8 3 10 -2 5 -5 -5 -22 20
-41 60 l-32 68 0 -117 c-1 -72 -5 -118 -11 -118 -5 0 -11 26 -12 58 l-1 57 -7
-60 c-5 -44 -7 -19 -8 93 l-2 152 29 0 c28 0 32 -6 73 -105z m588 -45 c0 -143
-1 -150 -20 -150 -19 0 -20 7 -20 130 l0 130 -75 0 -75 0 0 -130 c0 -123 -1
-130 -20 -130 -18 0 -20 7 -22 88 0 48 -2 115 -4 150 l-3 62 120 0 119 0 0
-150z m338 18 c28 -73 53 -141 57 -150 6 -14 2 -18 -14 -18 -16 0 -26 10 -37
35 l-14 35 -74 0 -74 0 -6 -35 c-6 -28 -12 -35 -30 -35 -22 0 -21 3 33 150 53
141 58 150 82 150 24 0 30 -9 77 -132z m226 67 l1 -60 80 -3 81 -3 -4 66 c-4
65 -4 67 19 63 l24 -3 0 -147 c0 -141 -1 -148 -20 -148 -18 0 -20 6 -17 65 3
57 2 65 -15 66 -16 0 -16 1 2 9 18 8 17 9 -7 9 -16 1 -28 -3 -28 -9 0 -5 -5
-10 -11 -10 -5 0 -7 5 -4 10 9 14 -78 13 -93 -2 -7 -7 -13 -41 -13 -77 -2 -58
-3 -61 -9 -26 l-6 40 -6 -40 c-2 -22 -5 22 -6 97 -1 75 -5 144 -8 153 -5 13
-2 16 16 13 21 -3 23 -8 24 -63z m398 -47 l3 -113 75 112 c58 87 80 112 98
113 22 0 22 -1 22 -150 0 -143 -1 -150 -20 -150 -19 0 -20 7 -20 110 0 98 -8
134 -23 97 -3 -7 -35 -56 -73 -110 -96 -137 -102 -135 -106 49 -2 80 -1 148 1
150 2 2 12 4 22 4 16 0 19 -12 21 -112z m558 -38 c0 -143 -1 -150 -20 -150
-18 0 -20 7 -20 65 0 63 -1 65 -25 65 -14 0 -25 -4 -25 -10 0 -5 -6 -10 -13
-10 -7 0 -27 -25 -45 -55 -26 -43 -39 -55 -57 -55 l-25 0 36 56 36 56 -25 24
c-51 47 -43 124 15 149 18 8 63 14 101 15 l67 0 0 -150z m-6335 18 c-4 -10
-137 -13 -620 -13 -485 0 -615 3 -615 13 0 9 131 12 620 12 491 0 618 -3 615
-12z m7844 -5 c0 -10 -3 -13 -5 -7 -3 7 -23 8 -62 2 -31 -4 -308 -8 -614 -7
-484 0 -558 2 -558 14 0 13 82 15 620 15 584 0 620 -1 619 -17z"/>
<path d="M8090 6531 c8 -6 31 -11 50 -12 42 -1 97 -16 66 -18 -16 -1 -17 -4
-8 -13 18 -18 15 -27 -8 -21 -11 3 -20 1 -20 -5 0 -7 -12 -6 -34 3 -35 15
-112 10 -85 -5 39 -21 238 -31 292 -14 24 8 21 31 -5 40 -22 7 -22 7 -3 15
l20 8 -20 1 -20 1 20 9 c13 5 -24 9 -102 9 -67 1 -130 4 -140 7 -15 5 -15 4
-3 -5z"/>
<path d="M7106 5828 c10 -15 22 -28 27 -28 11 0 9 -28 -3 -35 -6 -4 -7 1 -3
11 4 12 3 15 -5 10 -7 -4 -12 -2 -12 5 0 7 -3 9 -6 6 -4 -4 1 -18 10 -32 14
-22 15 -25 1 -25 -8 0 -15 5 -15 12 0 6 -2 9 -5 6 -6 -6 33 -117 47 -135 12
-14 28 -8 27 10 0 9 -2 8 -6 -1 -6 -16 -23 -6 -23 14 0 8 5 12 10 9 6 -3 10
-2 10 4 0 5 10 12 23 14 19 4 19 5 -5 7 -43 4 -46 5 -54 12 -4 5 16 6 44 5 28
-2 49 0 46 5 -11 17 15 7 54 -22 38 -27 60 -52 30 -34 -7 5 -9 2 -5 -8 4 -12
1 -14 -14 -11 -10 3 -19 10 -19 15 0 5 5 6 12 2 7 -4 8 -3 4 5 -4 6 -15 10
-24 9 -9 -2 -16 2 -15 9 2 7 -4 10 -12 7 -8 -4 -15 -10 -15 -16 0 -5 -6 -6
-12 -2 -10 5 -10 3 0 -7 11 -12 14 -12 21 0 7 10 10 10 16 1 8 -13 139 -100
151 -100 4 0 -1 10 -12 21 -19 22 -19 22 3 10 27 -14 36 -14 28 -1 -3 6 -2 10
4 10 5 0 13 -4 16 -10 3 -5 16 -10 28 -9 16 0 10 6 -23 23 -43 22 -190 114
-200 125 -28 32 -139 129 -124 109z"/>
<path d="M4778 3859 l3 -132 58 6 c108 9 158 58 148 144 -8 76 -63 113 -167
113 l-45 0 3 -131z"/>
<path d="M5520 3982 l-35 -3 3 -159 3 -160 52 0 c104 0 167 60 167 159 0 116
-68 175 -190 163z"/>
<path d="M8626 3981 c-4 -6 -6 -63 -5 -127 2 -132 0 -130 85 -119 41 5 64 14
90 37 30 26 34 36 34 79 0 61 -16 97 -54 116 -38 20 -141 30 -150 14z"/>
<path d="M3855 2846 c-77 -34 -74 -183 4 -216 90 -37 170 62 131 164 -18 48
-85 74 -135 52z"/>
<path d="M4905 2846 c-77 -34 -74 -183 4 -216 38 -15 82 -6 111 25 26 28 37
97 21 137 -19 50 -86 77 -136 54z"/>
<path d="M6983 2853 c-39 -7 -73 -59 -73 -109 0 -65 22 -101 70 -115 76 -23
130 24 130 113 0 52 -21 85 -66 104 -18 8 -35 13 -36 13 -2 -1 -13 -4 -25 -6z"/>
</g>
</svg>
